<svg width="16" height="16" viewBox="0 0 16 16" fill="none" xmlns="http://www.w3.org/2000/svg">
<path d="M8.00016 1.3335C11.6821 1.3335 14.6668 4.31846 14.6668 8.00016C14.6668 11.6819 11.6821 14.6668 8.00016 14.6668C4.31869 14.6668 1.3335 11.6816 1.3335 8.00016C1.3335 4.31869 4.31869 1.3335 8.00016 1.3335ZM8.00016 2.3335C4.87097 2.3335 2.3335 4.87097 2.3335 8.00016C2.3335 11.1294 4.87097 13.6668 8.00016 13.6668C11.1298 13.6668 13.6668 11.1296 13.6668 8.00016C13.6668 4.87073 11.1298 2.3335 8.00016 2.3335ZM8.00356 10.0308C8.27971 10.0308 8.50356 10.2546 8.50356 10.5308C8.50356 10.7839 8.31546 10.9931 8.07141 11.0262L7.9969 11.0308C7.72075 11.0308 7.4969 10.8069 7.4969 10.5308C7.4969 10.2776 7.685 10.0684 7.92905 10.0353L8.00356 10.0308ZM7.9969 4.96956C8.25003 4.96956 8.45922 5.15767 8.49233 5.40172L8.4969 5.46956V8.41556C8.4969 8.6917 8.27304 8.91556 7.9969 8.91556C7.74377 8.91556 7.53457 8.72746 7.50146 8.48341L7.4969 8.41556V5.46956C7.4969 5.19342 7.72075 4.96956 7.9969 4.96956Z" fill="#ABBBC2"/>
</svg>
