<svg width="16" height="16" viewBox="0 0 16 16" fill="none" xmlns="http://www.w3.org/2000/svg">
<path d="M9.30082 1.81105L9.42237 1.92438L9.90153 2.40355C10.0661 2.56736 10.282 2.66836 10.5117 2.69105L10.6108 2.69594H11.2962C12.3654 2.69594 13.2397 3.53205 13.3007 4.58597L13.3042 4.70394V5.3886C13.3042 5.6218 13.3846 5.84598 13.5296 6.02424L13.5957 6.09772L14.0749 6.57692C14.8292 7.32785 14.863 8.52871 14.1719 9.32009L14.0817 9.41682L13.5961 9.9024C13.4328 10.0661 13.3318 10.2822 13.309 10.5116L13.3042 10.6106V11.2966C13.3042 12.3658 12.4681 13.2395 11.4141 13.3005L11.2962 13.3039H10.6108C10.3785 13.3039 10.154 13.3847 9.97563 13.5301L9.90212 13.5964L9.42357 14.0743C8.67344 14.8295 7.47171 14.863 6.68003 14.1717L6.57726 14.0755L6.09919 13.5974C5.93359 13.433 5.7173 13.3316 5.4883 13.3088L5.38948 13.3039H4.70348C3.63473 13.3039 2.76063 12.4683 2.69956 11.4145L2.69615 11.2966V10.6106C2.69615 10.3786 2.61529 10.1539 2.4699 9.9759L2.40369 9.90258L1.9256 9.42382C1.17055 8.67303 1.13706 7.47128 1.8284 6.68038L1.9186 6.58372L2.40268 6.09897C2.56731 5.93317 2.66853 5.71729 2.69126 5.48772L2.69615 5.3886V4.70394L2.69956 4.58598C2.75837 3.5712 3.57115 2.75818 4.58557 2.69935L4.70348 2.69594H5.38948C5.6218 2.69594 5.84632 2.61535 6.02435 2.47056L6.09769 2.40463L6.57646 1.92518C7.32737 1.17087 8.52899 1.13766 9.30082 1.81105ZM7.36109 2.56179L7.28462 2.63124L6.80378 3.11274C6.45895 3.45513 6.00287 3.65985 5.52137 3.69159L5.38948 3.69594H4.70348C4.17844 3.69594 3.74663 4.0987 3.70027 4.61222L3.69615 4.70394V5.3886C3.69615 5.87471 3.51974 6.34214 3.20155 6.70752L3.11128 6.80458L2.6265 7.29002C2.25863 7.65957 2.23721 8.24335 2.56231 8.63938L2.63195 8.71596L3.11146 9.19614C3.45439 9.53988 3.65992 9.99677 3.69179 10.4786L3.69615 10.6106V11.2966C3.69615 11.822 4.09862 12.2535 4.61183 12.2998L4.70348 12.3039H5.38948C5.87468 12.3039 6.34251 12.4805 6.70797 12.7988L6.80504 12.889L7.28725 13.3713C7.65939 13.7413 8.24333 13.7629 8.639 13.4378L8.71551 13.3681L9.1961 12.8882C9.54058 12.5454 9.99687 12.3401 10.4788 12.3083L10.6108 12.3039H11.2962C11.8219 12.3039 12.2537 11.9017 12.3 11.3883L12.3042 11.2966V10.6106C12.3042 10.1247 12.4807 9.65604 12.7985 9.29226L12.8886 9.19571L13.3736 8.71072C13.7415 8.34075 13.7628 7.75726 13.4381 7.36138L13.3686 7.28482L12.8873 6.80357C12.5447 6.45852 12.3402 6.0029 12.3085 5.52071L12.3042 5.3886V4.70394C12.3042 4.17833 11.9014 3.74642 11.3879 3.70006L11.2962 3.69594H10.6108C10.1247 3.69594 9.65667 3.51968 9.29207 3.2017L9.19526 3.11149L8.73664 2.65164L8.71007 2.62696C8.34055 2.25911 7.75664 2.23758 7.36109 2.56179ZM10.0644 9.36167C10.1111 9.40834 10.1511 9.46167 10.1778 9.52167C10.1978 9.58167 10.2111 9.64834 10.2111 9.715C10.2111 9.78234 10.1978 9.84167 10.1778 9.90167C10.1511 9.96167 10.1111 10.0217 10.0644 10.0683C9.97108 10.1617 9.84442 10.215 9.71108 10.215C9.57775 10.215 9.45108 10.1617 9.35775 10.0683C9.31108 10.0217 9.27775 9.96167 9.25108 9.90167C9.22442 9.84167 9.21108 9.78234 9.21108 9.715C9.21108 9.64834 9.22442 9.58167 9.25108 9.52167C9.27775 9.46167 9.31108 9.40834 9.35775 9.36167C9.54442 9.175 9.87775 9.175 10.0644 9.36167ZM10.0668 5.93285C10.2443 6.11036 10.2605 6.38814 10.1152 6.58388L10.0668 6.63996L6.64017 10.0666C6.44491 10.2619 6.12833 10.2619 5.93306 10.0666C5.75555 9.88911 5.73942 9.61133 5.88465 9.41559L5.93306 9.35952L9.35973 5.93285C9.55499 5.73759 9.87158 5.73759 10.0668 5.93285ZM6.63768 5.93527C6.73102 6.02794 6.78435 6.15527 6.78435 6.2886C6.78435 6.35527 6.77768 6.4146 6.75102 6.47527C6.72435 6.53527 6.68435 6.5886 6.63768 6.64194C6.59102 6.6886 6.53768 6.72127 6.47768 6.74794C6.41768 6.7746 6.35102 6.7886 6.28435 6.7886C6.21768 6.7886 6.15768 6.7746 6.09768 6.74794C6.03768 6.72127 5.97768 6.6886 5.93102 6.64194C5.88435 6.5886 5.85102 6.53527 5.82435 6.47527C5.79768 6.4146 5.78435 6.35527 5.78435 6.2886C5.78435 6.22127 5.79768 6.15527 5.82435 6.09527C5.85102 6.03527 5.88435 5.97527 5.93102 5.93527C6.12435 5.74794 6.45102 5.74794 6.63768 5.93527Z" fill="#EA7C69"/>
</svg>
