<svg width="16" height="16" viewBox="0 0 16 16" fill="none" xmlns="http://www.w3.org/2000/svg">
<path d="M9.7388 13.1271C9.93652 13.2881 9.96786 13.5809 9.80879 13.7811C9.6912 13.929 9.55532 14.0615 9.41131 14.1701C8.92623 14.5507 8.3095 14.7233 7.69703 14.6503C7.08401 14.5773 6.52483 14.2642 6.14322 13.7793C5.98509 13.5784 6.0178 13.2858 6.21628 13.1257C6.41476 12.9657 6.70384 12.9988 6.86197 13.1997C7.09211 13.4921 7.43129 13.682 7.80443 13.7265C8.1781 13.771 8.55399 13.6658 8.8552 13.4295C8.94402 13.3625 9.02384 13.2847 9.09277 13.198C9.25184 12.9978 9.54108 12.9661 9.7388 13.1271ZM3.43491 5.99987L3.44312 5.60265C3.44899 5.43274 3.45807 5.27503 3.47139 5.12068C3.67119 2.96308 5.73059 1.33337 7.97669 1.33337H8.02424C10.2691 1.33337 12.3291 2.96194 12.5357 5.12362C12.5476 5.26103 12.5527 5.38309 12.5542 5.55475L12.5548 6.07992C12.5553 6.12776 12.5561 6.16983 12.5574 6.20906L12.5635 6.33989L12.5932 6.46463C12.687 6.81206 12.8519 7.13687 13.0777 7.41885L13.1781 7.53701L13.2193 7.58982C13.49 7.9945 13.6447 8.46538 13.6668 8.97253L13.6662 9.2414C13.6473 9.84202 13.4268 10.4221 13.0227 10.9055C12.4876 11.4734 11.7624 11.8263 10.9917 11.8972C9.00149 12.1133 6.99349 12.1133 5.00881 11.8978C4.2328 11.8231 3.50979 11.4713 2.95125 10.8816C2.53938 10.3795 2.32044 9.74723 2.3341 9.10833L2.33466 8.94949C2.35846 8.46372 2.51219 7.99327 2.77974 7.58684L2.82452 7.52923C3.13699 7.18666 3.35062 6.76741 3.44332 6.31541L3.43329 6.35601L3.43491 5.99987ZM8.02424 2.26361H7.97669C6.17784 2.26361 4.53885 3.56062 4.38661 5.20456C4.37882 5.29489 4.3726 5.38809 4.36775 5.48617L4.35704 5.7971L4.35269 6.40995L4.3431 6.50449C4.21645 7.12205 3.92502 7.69399 3.49969 8.16028L3.53254 8.12221L3.47379 8.21943C3.36375 8.41771 3.29276 8.63304 3.26471 8.84553L3.25306 8.97253L3.25296 9.11832C3.24395 9.54287 3.38741 9.95713 3.63596 10.2621C4.01937 10.6657 4.53805 10.918 5.10128 10.9723C7.02635 11.1813 8.96863 11.1813 10.9011 10.9715C11.4582 10.9202 11.9765 10.668 12.3391 10.2845C12.6135 9.9554 12.7585 9.53981 12.7479 9.10243L12.7484 8.99347C12.7343 8.67908 12.6342 8.37421 12.4584 8.1115L12.4686 8.12841L12.3766 8.02061C12.0597 7.62944 11.8295 7.17571 11.7013 6.68935L11.658 6.50549L11.6494 6.44371C11.643 6.35346 11.6392 6.27325 11.6372 6.1768L11.6354 5.57371C11.6341 5.42034 11.63 5.3171 11.6207 5.20888C11.4631 3.56054 9.82258 2.26361 8.02424 2.26361Z" fill="#ABBBC2"/>
</svg>
