<svg width="20" height="20" viewBox="0 0 20 20" fill="none" xmlns="http://www.w3.org/2000/svg">
<path d="M15.1976 11.7271C16.927 11.7271 18.3329 13.1148 18.3329 14.8219C18.3329 16.528 16.927 17.9167 15.1976 17.9167C13.4683 17.9167 12.0624 16.528 12.0624 14.8219C12.0624 13.1148 13.4683 11.7271 15.1976 11.7271ZM15.1976 13.1787C14.279 13.1787 13.533 13.9151 13.533 14.8219C13.533 15.7277 14.279 16.4651 15.1976 16.4651C16.1162 16.4651 16.8623 15.7277 16.8623 14.8219C16.8623 13.9151 16.1162 13.1787 15.1976 13.1787ZM8.4308 14.0958C8.83667 14.0958 9.16608 14.421 9.16608 14.8216C9.16608 15.2223 8.83667 15.5474 8.4308 15.5474H2.40247C1.9966 15.5474 1.66719 15.2223 1.66719 14.8216C1.66719 14.421 1.9966 14.0958 2.40247 14.0958H8.4308ZM4.80174 2.08337C6.53112 2.08337 7.93698 3.47207 7.93698 5.17818C7.93698 6.88429 6.53112 8.27298 4.80174 8.27298C3.07334 8.27298 1.6665 6.88429 1.6665 5.17818C1.6665 3.47207 3.07334 2.08337 4.80174 2.08337ZM4.80174 3.53497C3.88411 3.53497 3.13707 4.27238 3.13707 5.17818C3.13707 6.08397 3.88411 6.82138 4.80174 6.82138C5.72035 6.82138 6.46642 6.08397 6.46642 5.17818C6.46642 4.27238 5.72035 3.53497 4.80174 3.53497ZM17.5979 4.45257C18.0038 4.45257 18.3332 4.77773 18.3332 5.17837C18.3332 5.57901 18.0038 5.90417 17.5979 5.90417H11.5686C11.1627 5.90417 10.8333 5.57901 10.8333 5.17837C10.8333 4.77773 11.1627 4.45257 11.5686 4.45257H17.5979Z" fill="white"/>
</svg>
