<svg width="25" height="24" viewBox="0 0 25 24" fill="none" xmlns="http://www.w3.org/2000/svg">
<path d="M16.688 2.5C19.8978 2.5 22.5 5.16116 22.5 8.44374V15.5563C22.5 18.8388 19.8978 21.5 16.688 21.5H8.31204C5.10219 21.5 2.5 18.8388 2.5 15.5563V8.44374C2.5 5.16116 5.10219 2.5 8.31204 2.5H16.688ZM16.688 3.98651H8.31204C5.90498 3.98651 3.95358 5.98213 3.95358 8.44374V15.5563C3.95358 18.0179 5.90498 20.0135 8.31204 20.0135H16.688C19.095 20.0135 21.0464 18.0179 21.0464 15.5563L21.046 15.279L17.8499 15.2798C16.0084 15.2787 14.5159 13.7531 14.5147 11.8695C14.5147 10.0491 15.9101 8.56244 17.6673 8.46431L17.8504 8.45916L21.046 8.459L21.0464 8.44374C21.0464 6.05454 19.2081 4.10431 16.8991 3.99165L16.688 3.98651ZM21.046 9.945L17.8508 9.94567C16.8109 9.94632 15.9683 10.8074 15.9683 11.869C15.9689 12.8811 16.7329 13.7102 17.7033 13.7874L17.8504 13.7933L21.046 13.793V9.945ZM18.2942 11.0652C18.6956 11.0652 19.021 11.3979 19.021 11.8084C19.021 12.1847 18.7475 12.4957 18.3928 12.5449L18.2942 12.5517H17.9921C17.5907 12.5517 17.2653 12.2189 17.2653 11.8084C17.2653 11.4322 17.5388 11.1212 17.8935 11.072L17.9921 11.0652H18.2942ZM12.8539 6.99736C13.2553 6.99736 13.5807 7.33013 13.5807 7.74062C13.5807 8.1169 13.3073 8.42788 12.9525 8.47709L12.8539 8.48388H7.62203C7.22063 8.48388 6.89524 8.15111 6.89524 7.74062C6.89524 7.36434 7.16866 7.05337 7.5234 7.00415L7.62203 6.99736H12.8539Z" fill="#ABBBC2"/>
</svg>
