<svg width="104" height="104" viewBox="0 0 104 104" fill="none" xmlns="http://www.w3.org/2000/svg">
<g filter="url(#filter0_d_7704_2072)">
<rect x="24" y="16" width="56" height="56" rx="8" fill="#EA7C69"/>
<path d="M52.6161 34C53.3251 33.9997 54.0041 34.2806 54.4983 34.7787C54.9925 35.2768 55.2599 35.9497 55.2383 36.5777L55.2468 36.7254C55.2641 36.8708 55.3124 37.0112 55.3908 37.1405C55.5435 37.3957 55.7935 37.5808 56.0857 37.6551C56.3779 37.7295 56.6882 37.6869 56.9821 37.5184L57.146 37.4355C58.3759 36.869 59.8511 37.3192 60.5333 38.4793L61.1465 39.5217C61.1627 39.5492 61.1769 39.5776 61.1892 39.6067L61.2461 39.7184C61.7945 40.8652 61.4043 42.2293 60.3624 42.9223L60.1051 43.0807C59.9706 43.1726 59.8585 43.2926 59.7742 43.4368C59.6218 43.6929 59.58 43.998 59.658 44.2844C59.736 44.5708 59.9272 44.8149 60.2174 44.9793L60.3843 45.0841C60.8887 45.4297 61.253 45.9391 61.4119 46.523C61.5912 47.1817 61.495 47.8833 61.1399 48.4804L60.4803 49.557L60.3808 49.7089C59.6058 50.8008 58.1011 51.1344 56.9527 50.485L56.8166 50.4163C56.6746 50.3541 56.5214 50.3199 56.382 50.316C56.0786 50.3146 55.7872 50.432 55.5727 50.6422C55.3582 50.8524 55.2383 51.1379 55.2391 51.4698L55.231 51.6414C55.12 52.9703 53.9845 54 52.6164 54H51.3811C49.9322 54 48.7577 52.8493 48.7591 51.4753L48.7506 51.3277C48.7334 51.1822 48.685 51.0418 48.6027 50.9057C48.4534 50.65 48.2059 50.4633 47.9154 50.3871C47.6248 50.3109 47.3153 50.3516 47.0157 50.5213L46.8376 50.6084C46.2746 50.8565 45.6395 50.9023 45.0445 50.7366C44.3731 50.5497 43.8054 50.1083 43.4741 49.5224L42.8368 48.4442L42.752 48.2844C42.1716 47.0841 42.6265 45.6412 43.7811 44.9875L43.8865 44.9228C44.1949 44.7137 44.3799 44.3688 44.3799 44C44.3799 43.599 44.1615 43.2284 43.7795 43.0115L43.6245 42.9141C42.51 42.1548 42.1695 40.6805 42.8599 39.507L43.5092 38.4617C44.2313 37.2338 45.8316 36.8102 47.0624 37.5017L47.1956 37.5713C47.3314 37.6324 47.479 37.6648 47.621 37.6663C48.2474 37.6663 48.7578 37.1735 48.7672 36.5418L48.7758 36.3478C48.827 35.7472 49.0931 35.1827 49.528 34.7546C50.0186 34.2716 50.6855 34 51.3811 34H52.6161ZM52.6164 35.4477H51.3811C51.0786 35.4477 50.7887 35.5658 50.5753 35.7758C50.3863 35.962 50.2706 36.2074 50.2503 36.4366L50.2368 36.7415C50.1334 38.0709 48.9997 39.1142 47.6133 39.114C47.2559 39.1103 46.9036 39.0329 46.5443 38.8703L46.3519 38.7709C45.8038 38.4632 45.1049 38.6482 44.7806 39.1992L44.1313 40.2446C43.8338 40.7504 43.9826 41.3947 44.4432 41.7092L44.704 41.871C45.422 42.3467 45.8575 43.1429 45.8575 44C45.8575 44.8446 45.4341 45.634 44.7022 46.1296L44.5464 46.2256C44.0335 46.5163 43.8356 47.144 44.074 47.6383L44.1303 47.7449L44.7595 48.8084C44.9073 49.0696 45.1552 49.2624 45.4484 49.344C45.7083 49.4164 45.9857 49.3964 46.2021 49.3018L46.3108 49.2497C46.911 48.9066 47.6261 48.8126 48.2974 48.9886C48.9686 49.1645 49.5403 49.5959 49.8794 50.1768C50.0618 50.478 50.1772 50.8132 50.2219 51.1985L50.2421 51.552C50.3043 52.1145 50.7905 52.5523 51.3811 52.5523H52.6164C53.2137 52.5523 53.7099 52.1023 53.7565 51.5511L53.7621 51.4421C53.7588 50.7585 54.0345 50.1019 54.5279 49.6185C55.0212 49.1351 55.6914 48.865 56.4053 48.8686C56.7556 48.8778 57.1004 48.9547 57.4528 49.11L57.7687 49.2682C58.2647 49.4814 58.8529 49.3258 59.1511 48.9067L59.2236 48.7957L59.868 47.7436C60.0203 47.4875 60.0621 47.1824 59.9841 46.896C59.915 46.6422 59.7566 46.4207 59.5645 46.2882L59.2922 46.1195C58.7716 45.7748 58.3932 45.2563 58.2302 44.6574C58.0509 43.9987 58.1471 43.2971 58.4946 42.7126C58.6849 42.3872 58.9464 42.1073 59.2873 41.8753L59.448 41.7761C59.9601 41.4827 60.1578 40.855 59.9212 40.3588L59.8505 40.2253L59.8378 40.1973L59.253 39.2021C58.9764 38.7318 58.4008 38.5285 57.9125 38.6891L57.8015 38.7327L57.6983 38.7842C57.1001 39.1294 56.3863 39.2274 55.7143 39.0564C55.0423 38.8855 54.4673 38.4596 54.1181 37.8762C53.9357 37.575 53.8203 37.2398 53.7756 36.8545L53.7624 36.6025C53.7713 36.2992 53.6546 36.0054 53.4387 35.7878C53.2229 35.5703 52.9264 35.4477 52.6164 35.4477ZM52.0032 40.7318C53.8455 40.7318 55.339 42.195 55.339 44C55.339 45.805 53.8455 47.2682 52.0032 47.2682C50.161 47.2682 48.6675 45.805 48.6675 44C48.6675 42.195 50.161 40.7318 52.0032 40.7318ZM52.0032 42.1796C50.977 42.1796 50.1452 42.9946 50.1452 44C50.1452 45.0054 50.977 45.8204 52.0032 45.8204C53.0294 45.8204 53.8613 45.0054 53.8613 44C53.8613 42.9946 53.0294 42.1796 52.0032 42.1796Z" fill="#FAFAFA"/>
</g>
<defs>
<filter id="filter0_d_7704_2072" x="0" y="0" width="104" height="104" filterUnits="userSpaceOnUse" color-interpolation-filters="sRGB">
<feFlood flood-opacity="0" result="BackgroundImageFix"/>
<feColorMatrix in="SourceAlpha" type="matrix" values="0 0 0 0 0 0 0 0 0 0 0 0 0 0 0 0 0 0 127 0" result="hardAlpha"/>
<feOffset dy="8"/>
<feGaussianBlur stdDeviation="12"/>
<feColorMatrix type="matrix" values="0 0 0 0 0.917647 0 0 0 0 0.486275 0 0 0 0 0.411765 0 0 0 0.32 0"/>
<feBlend mode="normal" in2="BackgroundImageFix" result="effect1_dropShadow_7704_2072"/>
<feBlend mode="normal" in="SourceGraphic" in2="effect1_dropShadow_7704_2072" result="shape"/>
</filter>
</defs>
</svg>
