<svg width="104" height="104" viewBox="0 0 104 104" fill="none" xmlns="http://www.w3.org/2000/svg">
<g filter="url(#filter0_d_7704_1971)">
<rect x="24" y="16" width="56" height="56" rx="8" fill="#EA7C69"/>
<path d="M50.4978 38.7606C50.5855 38.9348 50.6382 39.1239 50.6533 39.321L51.0419 44.8095C51.0471 44.8847 51.0827 44.9548 51.1409 45.0042C51.1845 45.0413 51.2381 45.0645 51.298 45.0712L51.3599 45.0724L56.9341 44.7366C57.3867 44.71 57.8305 44.8675 58.1604 45.1719C58.4902 45.4763 58.6768 45.9004 58.6744 46.3912C58.4265 50.0037 55.773 53.0237 52.159 53.8065C48.545 54.5893 44.8361 52.9474 43.0578 49.7848C42.5823 48.9695 42.2618 48.0778 42.1138 47.1749L42.0664 46.8359C42.0253 46.5821 42.0032 46.3257 42 46.0795L42.0031 45.8372C42.0134 42.0655 44.6616 38.804 48.3881 37.9243L48.6438 37.8681L48.7814 37.8453C49.502 37.7468 50.211 38.1245 50.4978 38.7606ZM49.0164 39.2781L48.9322 39.2877L48.7037 39.3393C45.7353 40.0548 43.6062 42.6103 43.488 45.621L43.4828 45.8661C43.4757 46.0525 43.4825 46.2392 43.505 46.4378L43.5328 46.6408C43.6321 47.495 43.9079 48.3206 44.3491 49.0772C45.8163 51.6863 48.8667 53.0367 51.839 52.3929C54.8113 51.7491 56.9936 49.2653 57.1958 46.3414C57.1958 46.2974 57.1774 46.2552 57.1446 46.225C57.1228 46.2049 57.0959 46.1912 57.0675 46.1851L57.024 46.1817L51.459 46.5169C50.9894 46.5503 50.5255 46.3992 50.17 46.0971C49.8146 45.7951 49.5968 45.3669 49.5652 44.91L49.177 39.4262C49.1763 39.4171 49.1739 39.4082 49.1568 39.373C49.1315 39.3169 49.0765 39.2813 49.0164 39.2781ZM53.423 34.0011C57.7084 34.1223 61.3029 37.2016 61.9904 41.3408L62 41.4567L61.9977 41.6585C61.9737 41.9562 61.8538 42.2393 61.6545 42.4668C61.4041 42.7524 61.0477 42.9286 60.6588 42.9567L54.0133 43.39C53.1615 43.4382 52.4295 42.8051 52.3741 41.9735L51.9299 35.4491L51.9349 35.303L51.957 35.1382C52.0162 34.8462 52.1684 34.5794 52.3925 34.3764C52.6739 34.1216 53.0474 33.9866 53.423 34.0011ZM53.4113 35.449L53.8511 41.8781C53.8537 41.9172 53.888 41.9469 53.9214 41.945L60.5182 41.5135L60.4854 41.3335C59.8318 38.0802 57.0119 35.6644 53.6287 35.4593L53.4113 35.449Z" fill="white"/>
</g>
<defs>
<filter id="filter0_d_7704_1971" x="0" y="0" width="104" height="104" filterUnits="userSpaceOnUse" color-interpolation-filters="sRGB">
<feFlood flood-opacity="0" result="BackgroundImageFix"/>
<feColorMatrix in="SourceAlpha" type="matrix" values="0 0 0 0 0 0 0 0 0 0 0 0 0 0 0 0 0 0 127 0" result="hardAlpha"/>
<feOffset dy="8"/>
<feGaussianBlur stdDeviation="12"/>
<feColorMatrix type="matrix" values="0 0 0 0 0.917647 0 0 0 0 0.486275 0 0 0 0 0.411765 0 0 0 0.32 0"/>
<feBlend mode="normal" in2="BackgroundImageFix" result="effect1_dropShadow_7704_1971"/>
<feBlend mode="normal" in="SourceGraphic" in2="effect1_dropShadow_7704_1971" result="shape"/>
</filter>
</defs>
</svg>
